<svg xmlns="http://www.w3.org/2000/svg" viewBox="0 0 600 840" width="600" height="840" fill="#0B1220">
  <defs>
    <linearGradient id="metaGrad1" x1="0%" y1="0%" x2="100%" y2="100%">
      <stop offset="0%" stop-color="#8B5CF6" />
      <stop offset="50%" stop-color="#3B82F6" />
      <stop offset="100%" stop-color="#06B6D4" />
    </linearGradient>
    <filter id="blur1" x="-10%" y="-10%" width="120%" height="120%">
      <feGaussianBlur stdDeviation="7" />
    </filter>
  </defs>

  <rect x="0" y="0" width="600" height="840" rx="16" fill="#0A0F1D" stroke="#1E293B" stroke-width="2" />

  <!-- Top Header Bar -->
  <rect x="0" y="0" width="600" height="64" fill="#070B17" />
  <text x="32" y="38" font-family="'Plus Jakarta Sans', sans-serif" font-weight="900" font-size="16" fill="#A855F7" letter-spacing="3">NOVYRA</text>
  <text x="125" y="38" font-family="'Inter', sans-serif" font-weight="600" font-size="11" fill="#64748B" letter-spacing="1">META ADS BLUEPRINT 2026</text>
  <text x="500" y="38" font-family="'Inter', sans-serif" font-weight="700" font-size="12" fill="#94A3B8">PAGE 03/53</text>
  <line x1="0" y1="64" x2="600" y2="64" stroke="#1E293B" stroke-width="1" />

  <!-- Title -->
  <text x="40" y="108" font-family="'Inter', sans-serif" font-weight="800" font-size="11" fill="#8B5CF6" letter-spacing="2">ARCHITECTURE &amp; FOUNDATIONS</text>
  <text x="40" y="142" font-family="'Plus Jakarta Sans', sans-serif" font-weight="900" font-size="23" fill="#FFFFFF">THE 6 CORE OPERATING PILLARS</text>

  <!-- Content Box -->
  <rect x="40" y="180" width="520" height="280" rx="12" fill="#0F172A" stroke="#334155" stroke-width="1.5" />
  <rect x="40" y="180" width="520" height="38" rx="12" fill="#1E293B" />
  <text x="60" y="205" font-family="'Inter', sans-serif" font-weight="800" font-size="12" fill="#A855F7" letter-spacing="1">SYSTEMATIC BLUEPRINT STRUCTURE</text>

  <g transform="translate(60, 240)">
    <circle cx="6" cy="6" r="5" fill="#8B5CF6" />
    <text x="22" y="10" font-family="'Inter', sans-serif" font-weight="600" font-size="13" fill="#E2E8F0">01 Foundations: Meta auction logic &amp; Bangladesh ad dynamics</text>
  </g>
  <g transform="translate(60, 280)">
    <circle cx="6" cy="6" r="5" fill="#8B5CF6" />
    <text x="22" y="10" font-family="'Inter', sans-serif" font-weight="600" font-size="13" fill="#E2E8F0">02 Measurement: Pixel, CAPI, deduplication &amp; tracking loss</text>
  </g>
  <g transform="translate(60, 320)">
    <circle cx="6" cy="6" r="5" fill="#8B5CF6" />
    <text x="22" y="10" font-family="'Inter', sans-serif" font-weight="600" font-size="13" fill="#E2E8F0">03 Audiences: Broad vs. Advantage+ vs. Lookalikes</text>
  </g>
  <g transform="translate(60, 360)">
    <circle cx="6" cy="6" r="5" fill="#8B5CF6" />
    <text x="22" y="10" font-family="'Inter', sans-serif" font-weight="600" font-size="13" fill="#E2E8F0">04 Creative: 20 Bangla hooks, primary text &amp; headline formulas</text>
  </g>
  <g transform="translate(60, 400)">
    <circle cx="6" cy="6" r="5" fill="#8B5CF6" />
    <text x="22" y="10" font-family="'Inter', sans-serif" font-weight="600" font-size="13" fill="#E2E8F0">05 Economics: COD math, return-rate safeguards &amp; real ROAS</text>
  </g>
  <g transform="translate(60, 440)">
    <circle cx="6" cy="6" r="5" fill="#8B5CF6" />
    <text x="22" y="10" font-family="'Inter', sans-serif" font-weight="600" font-size="13" fill="#E2E8F0">06 Toolkit: Creative testing sheets, daily log &amp; 30-day plan</text>
  </g>

  <!-- Blurred proprietary section -->
  <g transform="translate(40, 490)">
    <rect x="0" y="0" width="520" height="260" rx="12" fill="#0B1220" stroke="#8B5CF6" stroke-dasharray="4 4" stroke-width="1.5" />
    <text x="25" y="32" font-family="'Inter', sans-serif" font-weight="700" font-size="12" fill="#C084FC">LOCAL MARKET DYNAMICS &amp; COURIER INTEGRATION</text>
    <g filter="url(#blur1)" opacity="0.65" transform="translate(25, 45)">
      <text x="0" y="20" font-family="'Inter', sans-serif" font-size="14" fill="#FFFFFF">Bangladeshi buyers prioritize Cash-on-Delivery (COD) trust over upfront card checkout...</text>
      <rect x="0" y="35" width="470" height="14" rx="3" fill="#475569" />
      <rect x="0" y="58" width="430" height="14" rx="3" fill="#475569" />
      <rect x="0" y="81" width="450" height="14" rx="3" fill="#475569" />
      <rect x="0" y="104" width="390" height="14" rx="3" fill="#475569" />
      <rect x="0" y="132" width="460" height="18" rx="4" fill="#8B5CF6" opacity="0.4" />
      <rect x="0" y="160" width="320" height="14" rx="3" fill="#475569" />
      <rect x="0" y="183" width="420" height="14" rx="3" fill="#475569" />
    </g>
    <rect x="160" y="170" width="200" height="36" rx="8" fill="#1E1B4B" stroke="#8B5CF6" />
    <text x="260" y="193" font-family="'Inter', sans-serif" font-weight="700" font-size="12" fill="#C084FC" text-anchor="middle">LOCKED CHAPTER CONTENT</text>
  </g>

  <!-- Watermark -->
  <text x="300" y="800" font-family="'Inter', sans-serif" font-weight="600" font-size="11" fill="#475569" text-anchor="middle">NOVYRA PROPRIETARY BLUEPRINT • CONFIDENTIAL</text>
</svg>